<mxfile host="app.diagrams.net" modified="2023-09-20T11:22:54.275Z" agent="Mozilla/5.0 (Windows NT 10.0; Win64; x64) AppleWebKit/537.36 (KHTML, like Gecko) Chrome/116.0.0.0 Safari/537.36" etag="HbbHOmJk4HHU0JrU1Bp_" version="21.7.5" type="github">
  <diagram id="C5RBs43oDa-KdzZeNtuy" name="Page-1">
    <mxGraphModel dx="880" dy="446" grid="1" gridSize="10" guides="1" tooltips="1" connect="1" arrows="1" fold="1" page="1" pageScale="1" pageWidth="827" pageHeight="1169" math="0" shadow="0">
      <root>
        <mxCell id="WIyWlLk6GJQsqaUBKTNV-0" />
        <mxCell id="WIyWlLk6GJQsqaUBKTNV-1" parent="WIyWlLk6GJQsqaUBKTNV-0" />
        <mxCell id="K4wtIV0Vw7q8hmusGQWw-63" style="edgeStyle=orthogonalEdgeStyle;rounded=0;orthogonalLoop=1;jettySize=auto;html=1;entryX=0.25;entryY=0;entryDx=0;entryDy=0;" edge="1" parent="WIyWlLk6GJQsqaUBKTNV-1" source="K4wtIV0Vw7q8hmusGQWw-11" target="K4wtIV0Vw7q8hmusGQWw-40">
          <mxGeometry relative="1" as="geometry" />
        </mxCell>
        <mxCell id="K4wtIV0Vw7q8hmusGQWw-11" value="ClientAccaont" style="swimlane;fontStyle=1;align=center;verticalAlign=top;childLayout=stackLayout;horizontal=1;startSize=26;horizontalStack=0;resizeParent=1;resizeParentMax=0;resizeLast=0;collapsible=1;marginBottom=0;whiteSpace=wrap;html=1;" vertex="1" parent="WIyWlLk6GJQsqaUBKTNV-1">
          <mxGeometry x="335" y="190" width="230" height="190" as="geometry" />
        </mxCell>
        <mxCell id="K4wtIV0Vw7q8hmusGQWw-12" value="-userId:int&lt;br&gt;-balance:double&lt;br&gt;-orders:int&lt;br&gt;-catalog:str" style="text;strokeColor=none;fillColor=none;align=left;verticalAlign=top;spacingLeft=4;spacingRight=4;overflow=hidden;rotatable=0;points=[[0,0.5],[1,0.5]];portConstraint=eastwest;whiteSpace=wrap;html=1;" vertex="1" parent="K4wtIV0Vw7q8hmusGQWw-11">
          <mxGeometry y="26" width="230" height="74" as="geometry" />
        </mxCell>
        <mxCell id="K4wtIV0Vw7q8hmusGQWw-13" value="" style="line;strokeWidth=1;fillColor=none;align=left;verticalAlign=middle;spacingTop=-1;spacingLeft=3;spacingRight=3;rotatable=0;labelPosition=right;points=[];portConstraint=eastwest;strokeColor=inherit;" vertex="1" parent="K4wtIV0Vw7q8hmusGQWw-11">
          <mxGeometry y="100" width="230" height="8" as="geometry" />
        </mxCell>
        <mxCell id="K4wtIV0Vw7q8hmusGQWw-14" value="replinishmentOfBalance():void&lt;br&gt;viewOrders(order):void&lt;br&gt;removeOrder:void&lt;br&gt;vievCatalog" style="text;strokeColor=none;fillColor=none;align=left;verticalAlign=top;spacingLeft=4;spacingRight=4;overflow=hidden;rotatable=0;points=[[0,0.5],[1,0.5]];portConstraint=eastwest;whiteSpace=wrap;html=1;" vertex="1" parent="K4wtIV0Vw7q8hmusGQWw-11">
          <mxGeometry y="108" width="230" height="82" as="geometry" />
        </mxCell>
        <mxCell id="K4wtIV0Vw7q8hmusGQWw-39" value="" style="edgeStyle=orthogonalEdgeStyle;rounded=0;orthogonalLoop=1;jettySize=auto;html=1;entryX=0.839;entryY=-0.016;entryDx=0;entryDy=0;entryPerimeter=0;" edge="1" parent="WIyWlLk6GJQsqaUBKTNV-1" source="K4wtIV0Vw7q8hmusGQWw-21" target="K4wtIV0Vw7q8hmusGQWw-11">
          <mxGeometry relative="1" as="geometry">
            <mxPoint x="680" y="320" as="targetPoint" />
          </mxGeometry>
        </mxCell>
        <mxCell id="K4wtIV0Vw7q8hmusGQWw-21" value="Autorization" style="swimlane;fontStyle=1;align=center;verticalAlign=top;childLayout=stackLayout;horizontal=1;startSize=26;horizontalStack=0;resizeParent=1;resizeParentMax=0;resizeLast=0;collapsible=1;marginBottom=0;whiteSpace=wrap;html=1;" vertex="1" parent="WIyWlLk6GJQsqaUBKTNV-1">
          <mxGeometry x="325" y="10" width="250" height="150" as="geometry" />
        </mxCell>
        <mxCell id="K4wtIV0Vw7q8hmusGQWw-22" value="-userName: str&lt;br&gt;-password:str" style="text;strokeColor=none;fillColor=none;align=left;verticalAlign=top;spacingLeft=4;spacingRight=4;overflow=hidden;rotatable=0;points=[[0,0.5],[1,0.5]];portConstraint=eastwest;whiteSpace=wrap;html=1;" vertex="1" parent="K4wtIV0Vw7q8hmusGQWw-21">
          <mxGeometry y="26" width="250" height="54" as="geometry" />
        </mxCell>
        <mxCell id="K4wtIV0Vw7q8hmusGQWw-23" value="" style="line;strokeWidth=1;fillColor=none;align=left;verticalAlign=middle;spacingTop=-1;spacingLeft=3;spacingRight=3;rotatable=0;labelPosition=right;points=[];portConstraint=eastwest;strokeColor=inherit;" vertex="1" parent="K4wtIV0Vw7q8hmusGQWw-21">
          <mxGeometry y="80" width="250" height="8" as="geometry" />
        </mxCell>
        <mxCell id="K4wtIV0Vw7q8hmusGQWw-24" value="-userDataVerification&lt;br&gt;(userName,password)&lt;br&gt;-newClientRegistration()&lt;br&gt;" style="text;strokeColor=none;fillColor=none;align=left;verticalAlign=top;spacingLeft=4;spacingRight=4;overflow=hidden;rotatable=0;points=[[0,0.5],[1,0.5]];portConstraint=eastwest;whiteSpace=wrap;html=1;" vertex="1" parent="K4wtIV0Vw7q8hmusGQWw-21">
          <mxGeometry y="88" width="250" height="62" as="geometry" />
        </mxCell>
        <mxCell id="K4wtIV0Vw7q8hmusGQWw-26" style="edgeStyle=orthogonalEdgeStyle;rounded=0;orthogonalLoop=1;jettySize=auto;html=1;exitX=1;exitY=0.5;exitDx=0;exitDy=0;" edge="1" parent="K4wtIV0Vw7q8hmusGQWw-21" source="K4wtIV0Vw7q8hmusGQWw-22" target="K4wtIV0Vw7q8hmusGQWw-22">
          <mxGeometry relative="1" as="geometry" />
        </mxCell>
        <mxCell id="K4wtIV0Vw7q8hmusGQWw-40" value="Order" style="swimlane;fontStyle=1;align=center;verticalAlign=top;childLayout=stackLayout;horizontal=1;startSize=26;horizontalStack=0;resizeParent=1;resizeParentMax=0;resizeLast=0;collapsible=1;marginBottom=0;whiteSpace=wrap;html=1;" vertex="1" parent="WIyWlLk6GJQsqaUBKTNV-1">
          <mxGeometry x="555" y="440" width="160" height="134" as="geometry" />
        </mxCell>
        <mxCell id="K4wtIV0Vw7q8hmusGQWw-41" value="product:srt&lt;br&gt;totalCost:double&lt;br&gt;idOrder:int&lt;br&gt;" style="text;strokeColor=none;fillColor=none;align=left;verticalAlign=top;spacingLeft=4;spacingRight=4;overflow=hidden;rotatable=0;points=[[0,0.5],[1,0.5]];portConstraint=eastwest;whiteSpace=wrap;html=1;" vertex="1" parent="K4wtIV0Vw7q8hmusGQWw-40">
          <mxGeometry y="26" width="160" height="74" as="geometry" />
        </mxCell>
        <mxCell id="K4wtIV0Vw7q8hmusGQWw-42" value="" style="line;strokeWidth=1;fillColor=none;align=left;verticalAlign=middle;spacingTop=-1;spacingLeft=3;spacingRight=3;rotatable=0;labelPosition=right;points=[];portConstraint=eastwest;strokeColor=inherit;" vertex="1" parent="K4wtIV0Vw7q8hmusGQWw-40">
          <mxGeometry y="100" width="160" height="8" as="geometry" />
        </mxCell>
        <mxCell id="K4wtIV0Vw7q8hmusGQWw-43" value="get order&lt;br&gt;" style="text;strokeColor=none;fillColor=none;align=left;verticalAlign=top;spacingLeft=4;spacingRight=4;overflow=hidden;rotatable=0;points=[[0,0.5],[1,0.5]];portConstraint=eastwest;whiteSpace=wrap;html=1;" vertex="1" parent="K4wtIV0Vw7q8hmusGQWw-40">
          <mxGeometry y="108" width="160" height="26" as="geometry" />
        </mxCell>
        <mxCell id="K4wtIV0Vw7q8hmusGQWw-44" value="Catalog" style="swimlane;fontStyle=1;align=center;verticalAlign=top;childLayout=stackLayout;horizontal=1;startSize=26;horizontalStack=0;resizeParent=1;resizeParentMax=0;resizeLast=0;collapsible=1;marginBottom=0;whiteSpace=wrap;html=1;" vertex="1" parent="WIyWlLk6GJQsqaUBKTNV-1">
          <mxGeometry x="320" y="440" width="170" height="150" as="geometry" />
        </mxCell>
        <mxCell id="K4wtIV0Vw7q8hmusGQWw-45" value="-product:str&lt;br&gt;" style="text;strokeColor=none;fillColor=none;align=left;verticalAlign=top;spacingLeft=4;spacingRight=4;overflow=hidden;rotatable=0;points=[[0,0.5],[1,0.5]];portConstraint=eastwest;whiteSpace=wrap;html=1;" vertex="1" parent="K4wtIV0Vw7q8hmusGQWw-44">
          <mxGeometry y="26" width="170" height="44" as="geometry" />
        </mxCell>
        <mxCell id="K4wtIV0Vw7q8hmusGQWw-46" value="" style="line;strokeWidth=1;fillColor=none;align=left;verticalAlign=middle;spacingTop=-1;spacingLeft=3;spacingRight=3;rotatable=0;labelPosition=right;points=[];portConstraint=eastwest;strokeColor=inherit;" vertex="1" parent="K4wtIV0Vw7q8hmusGQWw-44">
          <mxGeometry y="70" width="170" height="8" as="geometry" />
        </mxCell>
        <mxCell id="K4wtIV0Vw7q8hmusGQWw-47" value="viewAllProducts()&lt;br&gt;searchProducts(userProduct)&lt;br&gt;makeOrder()" style="text;strokeColor=none;fillColor=none;align=left;verticalAlign=top;spacingLeft=4;spacingRight=4;overflow=hidden;rotatable=0;points=[[0,0.5],[1,0.5]];portConstraint=eastwest;whiteSpace=wrap;html=1;" vertex="1" parent="K4wtIV0Vw7q8hmusGQWw-44">
          <mxGeometry y="78" width="170" height="72" as="geometry" />
        </mxCell>
        <mxCell id="K4wtIV0Vw7q8hmusGQWw-59" value="" style="edgeStyle=orthogonalEdgeStyle;rounded=0;orthogonalLoop=1;jettySize=auto;html=1;" edge="1" parent="WIyWlLk6GJQsqaUBKTNV-1" source="K4wtIV0Vw7q8hmusGQWw-48" target="K4wtIV0Vw7q8hmusGQWw-47">
          <mxGeometry relative="1" as="geometry" />
        </mxCell>
        <mxCell id="K4wtIV0Vw7q8hmusGQWw-48" value="Product" style="swimlane;fontStyle=1;align=center;verticalAlign=top;childLayout=stackLayout;horizontal=1;startSize=26;horizontalStack=0;resizeParent=1;resizeParentMax=0;resizeLast=0;collapsible=1;marginBottom=0;whiteSpace=wrap;html=1;" vertex="1" parent="WIyWlLk6GJQsqaUBKTNV-1">
          <mxGeometry x="90" y="272" width="160" height="138" as="geometry" />
        </mxCell>
        <mxCell id="K4wtIV0Vw7q8hmusGQWw-49" value="-name:str&lt;br&gt;-size:double&lt;br&gt;-price:double&lt;br&gt;-color:str" style="text;strokeColor=none;fillColor=none;align=left;verticalAlign=top;spacingLeft=4;spacingRight=4;overflow=hidden;rotatable=0;points=[[0,0.5],[1,0.5]];portConstraint=eastwest;whiteSpace=wrap;html=1;" vertex="1" parent="K4wtIV0Vw7q8hmusGQWw-48">
          <mxGeometry y="26" width="160" height="64" as="geometry" />
        </mxCell>
        <mxCell id="K4wtIV0Vw7q8hmusGQWw-50" value="" style="line;strokeWidth=1;fillColor=none;align=left;verticalAlign=middle;spacingTop=-1;spacingLeft=3;spacingRight=3;rotatable=0;labelPosition=right;points=[];portConstraint=eastwest;strokeColor=inherit;" vertex="1" parent="K4wtIV0Vw7q8hmusGQWw-48">
          <mxGeometry y="90" width="160" height="8" as="geometry" />
        </mxCell>
        <mxCell id="K4wtIV0Vw7q8hmusGQWw-51" value="get product" style="text;strokeColor=none;fillColor=none;align=left;verticalAlign=top;spacingLeft=4;spacingRight=4;overflow=hidden;rotatable=0;points=[[0,0.5],[1,0.5]];portConstraint=eastwest;whiteSpace=wrap;html=1;" vertex="1" parent="K4wtIV0Vw7q8hmusGQWw-48">
          <mxGeometry y="98" width="160" height="40" as="geometry" />
        </mxCell>
        <mxCell id="K4wtIV0Vw7q8hmusGQWw-55" value="Это интернет магазин спортивных товаров, в котором имеется возможность создать аккаунт, авторизоваться, просмотреть товары, сделать заказ, просмотреть имеющиеся заказы, удалить заказ." style="html=1;whiteSpace=wrap;align=left;" vertex="1" parent="WIyWlLk6GJQsqaUBKTNV-1">
          <mxGeometry width="240" height="210" as="geometry" />
        </mxCell>
        <mxCell id="K4wtIV0Vw7q8hmusGQWw-60" style="edgeStyle=orthogonalEdgeStyle;rounded=0;orthogonalLoop=1;jettySize=auto;html=1;" edge="1" parent="WIyWlLk6GJQsqaUBKTNV-1" source="K4wtIV0Vw7q8hmusGQWw-51" target="K4wtIV0Vw7q8hmusGQWw-40">
          <mxGeometry relative="1" as="geometry" />
        </mxCell>
        <mxCell id="K4wtIV0Vw7q8hmusGQWw-64" value="" style="edgeStyle=orthogonalEdgeStyle;rounded=0;orthogonalLoop=1;jettySize=auto;html=1;entryX=0.624;entryY=-0.013;entryDx=0;entryDy=0;entryPerimeter=0;" edge="1" parent="WIyWlLk6GJQsqaUBKTNV-1" source="K4wtIV0Vw7q8hmusGQWw-14" target="K4wtIV0Vw7q8hmusGQWw-44">
          <mxGeometry relative="1" as="geometry" />
        </mxCell>
      </root>
    </mxGraphModel>
  </diagram>
</mxfile>
